<svg xmlns="http://www.w3.org/2000/svg"  viewBox="0 0 100 100" width="200px" height="200px"><circle cx="77" cy="13" r="1" fill="#f1bc19"/><circle cx="50" cy="50" r="37" fill="#e6edb7"/><circle cx="83" cy="15" r="4" fill="#f1bc19"/><circle cx="87" cy="24" r="2" fill="#9f8066"/><circle cx="81" cy="76" r="2" fill="#fbcd59"/><circle cx="15" cy="63" r="4" fill="#fbcd59"/><circle cx="25" cy="87" r="2" fill="#9f8066"/><circle cx="19.5" cy="43.5" r="2.5" fill="#fff"/><circle cx="79.5" cy="33.5" r="1.5" fill="#fff"/><path fill="#fbcd59" d="M28.225,68.3c-0.289,0-0.524-0.252-0.524-0.562V32.262c0-0.31,0.235-0.562,0.524-0.562h43.551 c0.289,0,0.524,0.252,0.524,0.562v35.477c0,0.31-0.235,0.562-0.524,0.562H28.225z"/><path fill="#472b29" d="M71.6,32.4v35.2H28.4V32.4H71.6 M71.775,31H28.225C27.548,31,27,31.568,27,32.261v35.478 C27,68.432,27.548,69,28.225,69h43.551C72.452,69,73,68.432,73,67.739V32.261C73,31.568,72.452,31,71.775,31L71.775,31z"/><path fill="#c7dff1" d="M32,36h36v28H32V36z"/><g><path fill="#00a7a7" d="M36.637,64v-1.184l13.701-19.512c0.286-0.41,0.907-0.403,1.185,0.012L65.463,64H36.637z"/><path fill="#472b29" d="M66.402,64.5H36.137v-1.843l13.792-19.641c0.227-0.327,0.646-0.526,1.009-0.517 c0.404,0.004,0.778,0.205,1.001,0.538L66.402,64.5z M37.137,63.5h27.387L51.107,43.595c-0.058-0.086-0.13-0.102-0.182-0.095 c-0.037,0-0.122,0.01-0.178,0.09L37.137,62.974V63.5z"/></g><g><path fill="#00a7a7" d="M68,64h-6.97l-10.864-0.167L60.721,49.22c0.335-0.472,1.011-0.503,1.389-0.068l5.822,6.734L68,64z"/><path fill="#472b29" d="M68.504,64.5H61.03l-11.831-0.182l11.116-15.392c0.246-0.347,0.632-0.56,1.057-0.581 c0.424-0.016,0.832,0.152,1.114,0.478l5.943,6.875L68.504,64.5z M51.134,63.348l9.904,0.152h6.458l-0.063-7.427l-5.702-6.595 c-0.106-0.122-0.228-0.136-0.31-0.134c-0.068,0.004-0.197,0.029-0.293,0.164L51.134,63.348z"/></g><g><circle cx="59" cy="42" r="3" fill="#f9e65c"/><path fill="#472b29" d="M59,45.25c-1.792,0-3.25-1.458-3.25-3.25s1.458-3.25,3.25-3.25s3.25,1.458,3.25,3.25 S60.792,45.25,59,45.25z M59,39.25c-1.517,0-2.75,1.233-2.75,2.75s1.233,2.75,2.75,2.75s2.75-1.233,2.75-2.75 S60.517,39.25,59,39.25z"/></g><g><path fill="#00a5a5" d="M32,64h16.16l-9.981-15.76c-0.199-0.316-0.644-0.322-0.849-0.009L32,56.31V64z"/></g><g><path fill="#472b29" d="M48.16,64.5H32c-0.276,0-0.5-0.224-0.5-0.5v-7.69c0-0.098,0.029-0.193,0.083-0.275l5.331-8.078 c0.188-0.287,0.516-0.467,0.846-0.456c0.343,0.003,0.658,0.18,0.843,0.474l6.395,10.098c0.148,0.233,0.079,0.542-0.155,0.69 c-0.232,0.146-0.542,0.078-0.69-0.155l-6.396-10.099L32.5,56.46v7.04h14.752l-1.714-2.707c-0.148-0.233-0.079-0.542,0.155-0.69 c0.235-0.146,0.542-0.078,0.69,0.155l2.2,3.475c0.098,0.154,0.104,0.349,0.016,0.509C48.51,64.4,48.342,64.5,48.16,64.5z"/></g><g><path fill="#472b29" d="M68,64.5H32c-0.276,0-0.5-0.224-0.5-0.5V36c0-0.276,0.224-0.5,0.5-0.5h20.563 c0.276,0,0.5,0.224,0.5,0.5s-0.224,0.5-0.5,0.5H32.5v27h35v-27h-3.438c-0.276,0-0.5-0.224-0.5-0.5s0.224-0.5,0.5-0.5H68 c0.276,0,0.5,0.224,0.5,0.5v28C68.5,64.276,68.276,64.5,68,64.5z"/></g><g><path fill="#472b29" d="M61.5,36.5h-5.938c-0.276,0-0.5-0.224-0.5-0.5s0.224-0.5,0.5-0.5H61.5c0.276,0,0.5,0.224,0.5,0.5 S61.776,36.5,61.5,36.5z"/></g><g><rect width="3" height="67" x="48.5" y="16.5" fill="#9f8066" transform="rotate(-45.001 50 50)"/></g><g><path fill="#472b29" d="M72.627,75.249c-0.133,0-0.26-0.053-0.354-0.146L24.898,27.727c-0.195-0.195-0.195-0.512,0-0.707 l2.121-2.122c0.188-0.188,0.52-0.188,0.707,0l47.376,47.376c0.094,0.094,0.146,0.221,0.146,0.354s-0.053,0.26-0.146,0.354 l-2.122,2.122C72.887,75.196,72.76,75.249,72.627,75.249z M25.958,27.373l46.668,46.669l1.415-1.415L27.373,25.958L25.958,27.373z"/></g></svg>